<svg width="835.873" height="449.504" viewBox="0 0 835.873 449.504">
  <g id="shapes" transform="translate(-833 -275.738)">
    <circle id="Ellipse_8" data-name="Ellipse 8" cx="73" cy="73" r="73" transform="matrix(0.017, -1, 1, 0.017, 833, 421.716)" fill="#12a1ae"/>
    <circle id="Ellipse_6" data-name="Ellipse 6" cx="73" cy="73" r="73" transform="matrix(0.017, -1, 1, 0.017, 1001.426, 711.673)" fill="#ffffd2"/>
    <circle id="Ellipse_3" data-name="Ellipse 3" cx="73" cy="73" r="73" transform="matrix(0.017, -1, 1, 0.017, 1345.374, 576.682)" fill="#17b3c1"/>
    <circle id="Ellipse_9" data-name="Ellipse 9" cx="73" cy="73" r="73" transform="matrix(0.017, -1, 1, 0.017, 1002.974, 424.683)" fill="#12a1ae"/>
    <circle id="Ellipse_7" data-name="Ellipse 7" cx="73" cy="73" r="73" transform="matrix(0.017, -1, 1, 0.017, 1177.947, 722.241)" fill="#ffffd2"/>
    <rect id="Rectangle_4" data-name="Rectangle 4" width="146" height="147" rx="52" transform="matrix(0.017, -1, 1, 0.017, 1519.347, 579.718)" fill="#17b3c1"/>
    <rect id="Rectangle_7" data-name="Rectangle 7" width="146" height="147" rx="52" transform="matrix(0.017, -1, 1, 0.017, 1176.948, 427.72)" fill="#12a1ae"/>
    <rect id="Rectangle_6" data-name="Rectangle 6" width="146" height="147" rx="52" transform="matrix(0.017, -1, 1, 0.017, 1343.825, 722.677)" fill="#ffffd2"/>
  </g>
</svg>
